<svg width="21" height="21" viewBox="0 0 21 21" fill="none" xmlns="http://www.w3.org/2000/svg">
<path d="M20.5019 10.4374C20.5019 9.74383 20.4456 9.04654 20.3257 8.36426H10.7024V12.293H16.2132C15.9845 13.5601 15.2497 14.681 14.1738 15.3933V17.9425H17.4615C19.3922 16.1656 20.5019 13.5414 20.5019 10.4374Z" fill="#4285F4"/>
<path d="M10.7024 20.4056C13.454 20.4056 15.7745 19.5022 17.4652 17.9426L14.1775 15.3934C13.2628 16.0157 12.0819 16.3681 10.7061 16.3681C8.04444 16.3681 5.78764 14.5724 4.97789 12.1582H1.58521V14.7861C3.31716 18.2313 6.84481 20.4056 10.7024 20.4056Z" fill="#34A853"/>
<path d="M4.97423 12.1577C4.54686 10.8906 4.54686 9.51857 4.97423 8.25146V5.62354H1.58529C0.138238 8.50638 0.138238 11.9028 1.58529 14.7857L4.97423 12.1577Z" fill="#FBBC04"/>
<path d="M10.7024 4.03818C12.1569 4.01568 13.5627 4.56301 14.6161 5.5677L17.529 2.65486C15.6845 0.922899 13.2366 -0.0293031 10.7024 0.00068753C6.84481 0.00068753 3.31716 2.17501 1.58521 5.62393L4.97415 8.25186C5.78014 5.83386 8.04069 4.03818 10.7024 4.03818Z" fill="#EA4335"/>
</svg>
