<svg width="20" height="15" viewBox="0 0 20 15" fill="none" xmlns="http://www.w3.org/2000/svg">
<path d="M10 14C8.3599 14.0204 6.7367 13.6664 5.254 12.965C4.10469 12.4042 3.07265 11.6297 2.213 10.683C1.30243 9.7041 0.58547 8.5616 0.0999999 7.316L0 7L0.105 6.684C0.59082 5.4394 1.30624 4.29725 2.214 3.31698C3.07334 2.37029 4.10504 1.59584 5.254 1.03498C6.73671 0.333569 8.3599 -0.020411 10 -2.10435e-05C11.6401 -0.020371 13.2633 0.333599 14.746 1.03498C15.8953 1.59571 16.9274 2.37017 17.787 3.31698C18.6993 4.29453 19.4165 5.4373 19.9 6.684L20 7L19.895 7.316C18.3262 11.3998 14.3742 14.0693 10 14ZM10 1.99998C6.59587 1.89331 3.47142 3.87507 2.117 7C3.4712 10.1251 6.59579 12.1069 10 12C13.4041 12.1064 16.5284 10.1247 17.883 7C16.5304 3.87356 13.4047 1.89106 10 1.99998ZM10 10C8.5573 10.0095 7.30937 8.9973 7.02097 7.5838C6.73256 6.1702 7.48427 4.75 8.8154 4.19364C10.1465 3.63728 11.6852 4.10011 12.4885 5.2985C13.2919 6.4969 13.1354 8.0961 12.115 9.116C11.5563 9.6812 10.7948 9.9995 10 10Z" fill="#111828"/>
</svg>
